PathFileType	4	(X/Y/Z)	c:/Users/goper/Files/vsCode/490R/osim_files/C04/C04_Fast_07.trc
DataRate	CameraRate	NumFrames	NumMarkers	Units                	OrigDataRate	OrigDataStartFrame	OrigNumFrames
250.00	250.00	5	36	mm	250.0	1458	2914
                Frame#	Time	LPSIS			LASIS			LTH1			LTH2			LTH3			LTH4			LLFE			LMFE			LSH1			LSH2			LSH3			LSH4			LLMAL			LMMAL			LCAL			LMTP5			LTOE			LMTP1			RPSIS			RASIS			RTH1			RTH2			RTH3			RTH4			RLFE			RMFE			RSH1			RSH2			RSH3			RSH4			RLMAL			RMMAL			RCAL			RMTP1			RTOE			RMTP5		
		X1	Y1	Z1	X2	Y2	Z2	X3	Y3	Z3	X4	Y4	Z4	X5	Y5	Z5	X6	Y6	Z6	X7	Y7	Z7	X8	Y8	Z8	X9	Y9	Z9	X10	Y10	Z10	X11	Y11	Z11	X12	Y12	Z12	X13	Y13	Z13	X14	Y14	Z14	X15	Y15	Z15	X16	Y16	Z16	X17	Y17	Z17	X18	Y18	Z18	X19	Y19	Z19	X20	Y20	Z20	X21	Y21	Z21	X22	Y22	Z22	X23	Y23	Z23	X24	Y24	Z24	X25	Y25	Z25	X26	Y26	Z26	X27	Y27	Z27	X28	Y28	Z28	X29	Y29	Z29	X30	Y30	Z30	X31	Y31	Z31	X32	Y32	Z32	X33	Y33	Z33	X34	Y34	Z34	X35	Y35	Z35	X36	Y36	Z36

1458	5.82800	532.06812	983.68213	298.75089	367.14301	964.33789	380.52426	489.13361	722.30402	439.93921	488.25449	662.76691	424.36176	425.45868	732.03638	442.25909	410.61905	671.48853	423.27121	466.46701	460.02914	387.27972	465.95428	451.93100	270.40540	537.38068	366.18127	391.38330	554.71002	321.55643	385.49692	484.53961	351.40817	388.90009	494.42908	306.14786	384.01663	571.47418	82.15480	351.27625	572.83624	105.51458	261.76910	643.42017	62.68441	306.96524	443.17120	25.71644	344.30066	424.06326	50.48165	287.34637	460.32242	24.28330	238.30592	530.01910	981.11548	223.98366	359.69250	953.07025	169.76782	409.16879	720.30591	88.80173	380.60104	665.27649	98.55065	367.59805	759.32025	86.86732	317.02637	705.43060	98.20036	236.75697	501.26859	135.17502	231.30090	498.73856	247.96075	324.58490	385.53326	128.79448	328.36765	340.05725	132.49576	262.98383	372.19412	122.85970	276.39218	326.81458	125.36302	354.90009	123.94823	154.50549	326.02478	133.22124	241.35274	407.84360	99.39191	214.02924	210.79161	63.37484	213.95905	188.07631	80.09843	166.18912	234.69983	54.12893	113.29822
1459	5.83200	527.43921	983.43329	298.16653	362.91824	964.01880	380.63831	486.17316	722.44635	439.55603	485.46841	662.87091	423.98495	422.48224	731.73950	442.19312	407.88867	671.19714	423.21997	464.87570	460.02045	387.11078	464.22379	451.91272	270.21133	536.21161	366.40439	391.14139	553.67395	321.85236	385.17139	485.76041	353.30341	391.04935	493.34546	306.13647	383.71436	571.27618	82.46534	351.11328	572.56793	105.72321	261.46396	643.29779	63.16575	306.81140	443.17755	25.66000	344.21442	423.98758	50.41545	287.33749	460.20877	24.24459	238.36998	525.02734	980.89124	223.43376	353.57343	953.25690	168.38316	403.53293	720.18738	88.54971	374.90411	665.18384	98.41036	362.67444	759.34137	86.49594	311.38876	705.41321	97.96986	231.73975	501.61786	135.32635	225.56201	498.87253	248.18495	316.17267	383.47946	128.59451	318.80630	337.86063	132.28804	254.37128	371.77209	122.66174	266.54065	326.05734	125.19686	339.46158	120.96724	154.13031	311.23062	131.00797	241.06880	391.89258	94.82771	213.40028	193.89069	64.44371	214.04532	171.77599	81.99120	166.28503	217.29689	54.67256	113.26532
1460	5.83600	522.75848	983.10193	297.50671	358.54248	963.62067	380.74628	483.22183	722.58905	439.17929	482.23633	662.75244	423.41437	419.45319	731.55750	442.10657	405.19391	670.93317	423.20456	463.23047	459.90994	386.99170	462.38922	451.88202	270.02023	535.00531	366.63080	390.81900	552.69745	322.19019	384.90842	482.36084	351.52078	388.69034	492.45511	306.32086	383.71136	571.01721	82.79819	350.90039	572.31366	105.90991	261.20273	643.13342	63.55350	306.65833	443.08334	25.58049	344.10556	423.91861	50.35015	287.30585	460.19617	24.25922	238.36142	520.04169	980.56244	222.80228	349.37231	952.48730	170.10486	397.93307	719.97162	88.43429	369.26895	665.03687	98.30627	357.70114	759.25079	86.10166	305.76144	705.24585	97.53583	224.98990	501.33405	135.60963	219.66736	498.79059	248.33424	307.77588	381.48367	128.39450	309.24582	335.72638	132.01396	245.63617	371.31741	122.61068	256.67996	325.17734	125.05054	324.03256	118.09568	153.71326	296.25037	128.64276	241.10785	376.07800	90.55661	212.64857	177.23055	65.67309	214.23737	155.19154	83.85720	166.85129	199.78600	55.32822	113.40876
1461	5.84000	518.10089	982.80627	296.88571	352.21011	962.71991	379.32083	480.18777	722.67798	438.75061	479.89133	663.06451	423.20236	416.33578	731.25159	441.91489	402.41962	670.55157	423.14932	460.44919	459.16315	386.22202	460.58395	451.80856	269.82346	533.73718	366.90225	390.56003	551.62817	322.53769	384.61478	481.12787	351.48874	388.35245	491.34601	306.34283	383.42236	570.81061	83.11668	350.70267	572.09595	106.07858	260.89429	642.94391	64.02061	306.46964	442.99240	25.50949	343.98227	423.82980	50.28133	287.29684	460.14066	24.25481	238.39813	515.06049	980.21045	222.18787	344.15775	952.05573	170.25546	392.44528	719.68201	88.33400	363.69516	664.76941	98.30959	352.67694	759.05396	85.68803	300.24356	705.04163	97.13950	219.29813	501.25507	135.81204	213.89847	498.66928	248.56190	299.02747	379.05475	128.35849	299.66025	333.58337	131.77391	236.72508	370.13754	122.65827	246.93961	324.39636	124.87797	308.54910	115.36045	153.30470	282.00842	126.91643	240.32744	360.05392	86.31237	212.00612	160.66531	67.09574	214.54552	138.91721	85.92513	167.23100	182.61682	56.10083	113.67187
1462	5.84400	513.35461	982.41040	296.25269	349.85843	962.79907	380.90833	477.18066	722.79138	438.35486	477.05029	663.11371	422.75418	413.21484	730.93372	441.80450	399.50360	670.11255	423.08777	459.91519	459.79840	386.61795	458.75473	451.75644	269.60294	532.43811	367.08325	390.26938	550.49817	322.76837	384.26685	479.78094	351.49527	388.17380	490.32230	306.40335	383.22687	570.55750	83.37534	350.56216	571.89197	106.26562	260.57172	642.71899	64.48173	306.28387	442.90790	25.40998	343.92297	423.74200	50.17011	287.30124	460.09827	24.24584	238.40317	510.03369	979.84076	221.55331	338.96368	951.58441	170.52484	387.07587	719.36316	88.32992	358.34512	664.43384	98.29697	347.60074	758.75623	85.25858	294.85114	704.59729	96.53625	213.68962	501.08316	136.03795	208.21075	498.44791	248.76239	290.61331	376.93982	128.11055	290.26535	331.57785	131.46626	228.13884	369.47592	122.60690	237.24762	323.60611	124.74390	293.14386	112.80672	152.85585	267.41415	125.15398	240.03508	344.12454	82.27690	211.29553	144.28575	68.64207	215.02908	122.49643	88.35207	167.75549	165.37834	57.02667	113.87182
